<?xml version="1.0" standalone="no"?>
<!DOCTYPE svg PUBLIC "-//W3C//DTD SVG 20010904//EN"
 "http://www.w3.org/TR/2001/REC-SVG-20010904/DTD/svg10.dtd">
<svg version="1.0" xmlns="http://www.w3.org/2000/svg"
 width="4000.000000pt" height="4000.000000pt" viewBox="0 0 4000.000000 4000.000000"
 preserveAspectRatio="xMidYMid meet">
<metadata>
Created by potrace 1.11, written by Peter Selinger 2001-2013
</metadata>
<g transform="translate(0.000000,4000.000000) scale(0.100000,-0.100000)"
fill="#000000" stroke="none">
<path d="M0 20000 l0 -20000 20000 0 20000 0 0 20000 0 20000 -20000 0 -20000
0 0 -20000z m15099 4831 c2365 -2394 4301 -4356 4301 -4360 0 -3 -1549 -1840
-3443 -4081 -1894 -2241 -3446 -4083 -3450 -4094 -4 -10 -7 -531 -7 -1157 l0
-1139 -2515 0 c-2426 0 -2515 1 -2515 18 0 10 563 4448 1250 9862 688 5414
1258 9903 1267 9975 l16 130 397 -400 c219 -220 2333 -2359 4699 -4754z
m16171 -4870 c693 -5459 1260 -9933 1260 -9943 0 -17 -89 -18 -2515 -18
l-2515 0 0 1150 0 1151 -3450 4084 c-1898 2246 -3452 4085 -3453 4087 -1 2
2113 2144 4698 4760 l4700 4756 7 -51 c4 -29 575 -4518 1268 -9976z"/>
<path d="M12500 18918 l0 -3873 1940 1940 1940 1940 -1902 1903 c-1047 1047
-1920 1917 -1940 1933 l-38 31 0 -3874z"/>
<path d="M25557 20862 l-1937 -1937 1940 -1940 1940 -1940 0 3878 c0 2132 -1
3877 -3 3877 -1 0 -874 -872 -1940 -1938z"/>
</g>
</svg>
