<?xml version="1.0" encoding="UTF-8" standalone="no"?>
<svg
   xmlns:dc="http://purl.org/dc/elements/1.1/"
   xmlns:cc="http://creativecommons.org/ns#"
   xmlns:rdf="http://www.w3.org/1999/02/22-rdf-syntax-ns#"
   xmlns:svg="http://www.w3.org/2000/svg"
   xmlns="http://www.w3.org/2000/svg"
   xmlns:sodipodi="http://sodipodi.sourceforge.net/DTD/sodipodi-0.dtd"
   xmlns:inkscape="http://www.inkscape.org/namespaces/inkscape"
   height="512"
   version="1.1"
   viewBox="0 0 512 512"
   width="512"
   id="svg13"
   sodipodi:docname="itch_black.svg"
   inkscape:version="1.0 (4035a4fb49, 2020-05-01)">
  <metadata
     id="metadata17">
    <rdf:RDF>
      <cc:Work
         rdf:about="">
        <dc:format>image/svg+xml</dc:format>
        <dc:type
           rdf:resource="http://purl.org/dc/dcmitype/StillImage" />
      </cc:Work>
    </rdf:RDF>
  </metadata>
  <sodipodi:namedview
     inkscape:document-rotation="0"
     pagecolor="#ffffff"
     bordercolor="#666666"
     borderopacity="1"
     objecttolerance="10"
     gridtolerance="10"
     guidetolerance="10"
     inkscape:pageopacity="0"
     inkscape:pageshadow="2"
     inkscape:window-width="2560"
     inkscape:window-height="1377"
     id="namedview15"
     showgrid="false"
     inkscape:zoom="1.05"
     inkscape:cx="230.45921"
     inkscape:cy="403.61113"
     inkscape:window-x="1912"
     inkscape:window-y="-8"
     inkscape:window-maximized="1"
     inkscape:current-layer="svg13" />
  <title
     id="title2" />
  <desc
     id="desc4" />
  <defs
     id="defs6" />
  <path
     style="stroke-width:2.08358"
     d="M 67.027497,28.88558 C 44.726886,42.12675 0.79039445,92.60155 0.37354605,105.83854 v 21.91095 c 0,27.77416 25.96141495,52.18543 49.53308195,52.18543 28.303307,0 51.885322,-23.45699 51.887472,-51.29782 0,27.84083 22.77352,51.29782 51.07897,51.29782 28.30761,0 50.34979,-23.45699 50.34979,-51.29782 0,27.84083 24.2155,51.29782 52.52095,51.29782 h 0.51256 c 28.30741,0 52.52291,-23.45699 52.52291,-51.29782 0,27.84083 22.04433,51.29782 50.34764,51.29782 28.30545,0 51.07897,-23.45699 51.07897,-51.29782 0,27.84083 23.58632,51.29782 51.88748,51.29782 23.57166,0 49.53308,-24.40711 49.53308,-52.18543 V 105.83854 C 511.2098,92.59946 467.27331,42.122589 444.9768,28.88558 375.66431,26.451959 327.61266,26.031087 255.99794,26.041498 184.38518,26.047358 86.752789,27.166637 67.023199,28.88558 Z m 135.836923,137.9686 a 58.392403,58.392403 0 0 1 -9.95944,12.82445 c -10.68452,10.44708 -25.33009,16.92286 -41.47583,16.92286 a 59.344601,59.344601 0 0 1 -41.56335,-16.9312 c -3.87118,-3.79213 -6.81334,-7.84677 -9.50723,-12.56817 l -0.0195,0.008 c -2.69212,4.72975 -6.442584,8.78232 -10.322165,12.57859 A 59.382106,59.382106 0 0 1 48.453559,196.6074 c -1.945944,0 -3.971195,-0.53756 -5.608898,-1.10013 -2.275281,23.69451 -3.235947,46.33886 -3.575442,62.84916 v 0.0938 c -0.04102,8.38433 -0.084,15.2789 -0.125015,24.85713 0.437554,49.71428 -4.923461,161.13178 21.919313,188.50798 41.596543,9.69907 118.139023,14.11626 194.929583,14.14335 h 0.0195 c 76.78822,-0.0272 153.3307,-4.44428 194.92744,-14.14335 26.84278,-27.37827 21.48176,-138.79577 21.91932,-188.51007 -0.0469,-9.57614 -0.084,-16.47071 -0.12502,-24.85713 v -0.0938 c -0.33754,-16.51446 -1.2982,-39.15674 -3.57349,-62.85123 -1.6375,0.56257 -3.6608,1.10013 -5.60889,1.10013 a 59.382106,59.382106 0 0 1 -41.56335,-16.91869 c -3.87958,-3.79629 -7.63005,-7.84677 -10.32413,-12.57859 l -0.0195,-0.008 c -2.69623,4.7214 -5.63605,8.77813 -9.50743,12.56817 a 59.340433,59.340433 0 0 1 -41.5612,16.92911 c -16.1436,0 -30.79111,-6.47994 -41.47583,-16.92495 a 58.392403,58.392403 0 0 1 -9.95944,-12.82445 58.319478,58.319478 0 0 1 -9.86782,12.82445 59.361269,59.361269 0 0 1 -41.56745,16.92704 c -0.56257,0 -1.12514,-0.025 -1.68771,-0.0416 h -0.0195 c -0.56257,0.0176 -1.12514,0.0416 -1.69396,0.0416 a 59.361269,59.361269 0 0 1 -41.56745,-16.92495 58.323645,58.323645 0 0 1 -9.86802,-12.82445 z m -42.68419,55.19408 v 0.0209 h 0.0312 c 16.90405,0.0354 31.92055,0 50.52696,20.30659 14.64341,-1.5356 29.94511,-2.30235 45.2595,-2.27944 h 0.0195 c 15.31439,-0.0209 30.61609,0.74384 45.26165,2.27944 18.60641,-20.30868 33.62272,-20.27327 50.52696,-20.30659 h 0.0293 v -0.0209 c 7.98634,0 39.93385,0 62.1948,62.52207 l 23.91117,85.77067 c 17.71879,63.80764 -5.67356,65.36824 -34.85197,65.4245 -43.27196,-1.61061 -67.23098,-33.0352 -67.23098,-64.45563 -23.95296,3.92547 -51.89587,5.88821 -79.83878,5.89028 h -0.0195 c -27.94486,0 -55.88797,-1.96481 -79.83859,-5.89028 0,31.42043 -23.96136,62.84502 -67.23097,64.45563 C 79.751873,435.7092 56.361674,434.15071 74.080468,370.341 L 97.99793,284.5724 c 22.26095,-62.52205 54.20846,-62.52205 62.19499,-62.52205 z m 95.81361,49.13504 v 0.0117 c -0.041,0.0416 -45.55349,41.83834 -53.73575,56.70471 l 29.80369,-1.19389 v 25.99059 c 0,1.21681 11.95968,0.72093 23.93206,0.16663 h 0.0195 c 11.96808,0.55422 23.92991,1.05011 23.92991,-0.16663 V 326.7066 l 29.80349,1.19389 C 301.56257,313.03414 256.01123,271.1958 256.01123,271.1958 v -0.0117 0.004 z"
     color="#000000"
     id="path2" />
</svg>
