<?xml version="1.0" encoding="UTF-8" standalone="no"?>
<svg
   xmlns:dc="http://purl.org/dc/elements/1.1/"
   xmlns:cc="http://creativecommons.org/ns#"
   xmlns:rdf="http://www.w3.org/1999/02/22-rdf-syntax-ns#"
   xmlns:svg="http://www.w3.org/2000/svg"
   xmlns="http://www.w3.org/2000/svg"
   xmlns:sodipodi="http://sodipodi.sourceforge.net/DTD/sodipodi-0.dtd"
   xmlns:inkscape="http://www.inkscape.org/namespaces/inkscape"
   height="512"
   width="512"
   enable-background="new 0 0 26 26"
   id="Слой_1"
   version="1.1"
   viewBox="0 0 512 512"
   xml:space="preserve"
   sodipodi:docname="mail.svg"
   inkscape:version="1.0 (4035a4fb49, 2020-05-01)"><metadata
     id="metadata9"><rdf:RDF><cc:Work
         rdf:about=""><dc:format>image/svg+xml</dc:format><dc:type
           rdf:resource="http://purl.org/dc/dcmitype/StillImage" /><dc:title></dc:title></cc:Work></rdf:RDF></metadata><defs
     id="defs7" /><sodipodi:namedview
     inkscape:document-rotation="0"
     pagecolor="#ffffff"
     bordercolor="#666666"
     borderopacity="1"
     objecttolerance="10"
     gridtolerance="10"
     guidetolerance="10"
     inkscape:pageopacity="0"
     inkscape:pageshadow="2"
     inkscape:window-width="2560"
     inkscape:window-height="1377"
     id="namedview5"
     showgrid="false"
     inkscape:zoom="1.2115385"
     inkscape:cx="441.68235"
     inkscape:cy="263.65917"
     inkscape:window-x="1912"
     inkscape:window-y="-8"
     inkscape:window-maximized="1"
     inkscape:current-layer="Слой_1" /><path
     d="M 474.22917,60 H 37.770833 C 16.9375,60 0,78 0,100.125 v 303.75 C 0,426 16.9375,444 37.770833,444 H 474.22917 C 495.0625,444 512,426 512,403.875 V 100.125 C 512,78 495.0625,60 474.22917,60 Z M 312.88932,252.00651 480,131.40234 V 372.59896 Z M 474.22917,92 c 1.14192,0 2.29948,0.6901 3.30468,1.72136 L 256,253.60287 34.466146,93.72136 C 35.471354,92.6901 36.628907,92 37.770833,92 Z M 32,372.59766 V 131.40234 L 199.10026,251.9987 Z M 37.770833,412 c -1.141926,0 -2.299479,-0.69271 -3.304687,-1.72266 L 226.4388,271.72917 246.64583,286.3125 c 0.47917,0.34766 1.03386,0.48958 1.53907,0.77604 0.49349,0.27995 0.95443,0.51693 1.47135,0.74219 2.04688,0.89453 4.17057,1.5026 6.32292,1.5026 0.008,0 0.013,-0.005 0.0208,-0.005 0.008,0 0.013,0.005 0.0208,0.005 2.15235,0 4.27605,-0.60807 6.32292,-1.5026 0.51693,-0.22526 0.97786,-0.46224 1.47135,-0.74219 0.50521,-0.28646 1.0599,-0.42838 1.53907,-0.77604 l 20.19661,-14.57682 191.98307,138.54297 C 476.52865,411.30859 475.37109,412 474.22917,412 Z"
     fill="#1D1D1B"
     id="path2"
     style="fill:#d40000;stroke-width:21.3333" /></svg>
