<?xml version="1.0" encoding="UTF-8" standalone="no"?>
<svg
   xmlns:dc="http://purl.org/dc/elements/1.1/"
   xmlns:cc="http://creativecommons.org/ns#"
   xmlns:rdf="http://www.w3.org/1999/02/22-rdf-syntax-ns#"
   xmlns:svg="http://www.w3.org/2000/svg"
   xmlns="http://www.w3.org/2000/svg"
   xmlns:sodipodi="http://sodipodi.sourceforge.net/DTD/sodipodi-0.dtd"
   xmlns:inkscape="http://www.inkscape.org/namespaces/inkscape"
   inkscape:version="1.0 (4035a4fb49, 2020-05-01)"
   sodipodi:docname="twitter_black.svg"
   xml:space="preserve"
   width="512"
   viewBox="0 0 511.99999 511.99999"
   version="1.1"
   id="Layer_1"
   height="512"
   enable-background="new 0 0 56.693 56.693"><metadata
     id="metadata9"><rdf:RDF><cc:Work
         rdf:about=""><dc:format>image/svg+xml</dc:format><dc:type
           rdf:resource="http://purl.org/dc/dcmitype/StillImage" /><dc:title></dc:title></cc:Work></rdf:RDF></metadata><defs
     id="defs7" /><sodipodi:namedview
     inkscape:current-layer="Layer_1"
     inkscape:window-maximized="1"
     inkscape:window-y="-8"
     inkscape:window-x="1912"
     inkscape:cy="282.82511"
     inkscape:cx="314.11819"
     inkscape:zoom="1.5715424"
     showgrid="false"
     id="namedview5"
     inkscape:window-height="1377"
     inkscape:window-width="2560"
     inkscape:pageshadow="2"
     inkscape:pageopacity="0"
     guidetolerance="10"
     gridtolerance="10"
     objecttolerance="10"
     borderopacity="1"
     bordercolor="#666666"
     pagecolor="#ffffff" /><path
     style="stroke-width:10.3932"
     id="path2"
     d="m 512,99.253354 c -18.82208,8.366526 -39.07842,14.010026 -60.3325,16.535576 21.70099,-12.9915 38.3405,-33.570023 46.18736,-58.118752 -20.29791,12.045714 -42.768,20.786392 -66.70353,25.504903 C 411.99667,62.762844 384.69375,50 354.48073,50 296.4763,50 249.44709,97.029211 249.44709,155.04403 c 0,8.22102 0.92499,16.23417 2.72302,23.93553 C 164.86726,174.59363 87.458739,132.7818 35.648658,69.227412 26.606578,84.73406 21.430767,102.77665 21.430767,122.04563 c 0,36.43855 18.541461,68.59509 46.727807,87.42756 -17.211132,-0.55083 -33.414124,-5.27974 -47.58005,-13.14739 -0.01039,0.43652 -0.01039,0.88342 -0.01039,1.33033 0,50.88509 36.209894,93.3309 84.268036,102.99657 -8.813435,2.39044 -18.094559,3.67919 -27.677085,3.67919 -6.776364,0 -13.355257,-0.65477 -19.767858,-1.89156 13.376043,41.72868 52.163453,72.10799 98.122163,72.94984 -35.95007,28.17595 -81.23322,44.97136 -130.455395,44.97136 -8.470455,0 -16.836977,-0.49887 -25.057995,-1.47583 46.499158,29.81807 101.70781,47.1955 161.02178,47.1955 193.2199,0 298.86674,-160.05522 298.86674,-298.86674 0,-4.55222 -0.0935,-9.09405 -0.29101,-13.60469 C 480.11368,138.83064 497.92761,120.32036 512,99.253354 Z" /></svg>
