<?xml version="1.0" encoding="utf-8"?>
<!-- Generator: Adobe Illustrator 25.2.3, SVG Export Plug-In . SVG Version: 6.00 Build 0)  -->
<svg version="1.1" id="Warstwa_2" xmlns="http://www.w3.org/2000/svg" xmlns:xlink="http://www.w3.org/1999/xlink" x="0px" y="0px"
	 viewBox="0 0 841.89 595.28" style="enable-background:new 0 0 841.89 595.28;" xml:space="preserve">
<style type="text/css">
	.st0{fill:#FFFFFF;}
	.st1{fill:#414141;}
	.st2{fill:#6B6B6B;}
	.st3{fill:#BEBDBD;}
</style>
<rect x="260.44" y="164.33" class="st0" width="69.56" height="271.78"/>
<rect x="530.33" y="164.33" class="st0" width="69.56" height="271.78"/>
<g>
	<polygon class="st1" points="260.44,436.11 295.22,164.33 260.44,164.33 	"/>
	<polygon class="st1" points="565.11,164.33 599.89,436.11 599.89,164.33 	"/>
	<polygon class="st1" points="430.17,283.89 330,164.33 295.22,164.33 422.17,293.44 330,403.44 430.17,301.57 530.33,403.44 
		438.17,293.44 565.11,164.33 530.33,164.33 	"/>
</g>
<polygon class="st2" points="330,164.33 430.17,283.89 530.33,164.33 430.17,265.21 "/>
<polygon class="st2" points="430.17,301.57 330,403.44 430.17,344.15 530.33,403.44 "/>
<polygon class="st3" points="295.22,164.33 422.17,293.44 302.61,436.11 260.44,436.11 380.95,314.61 288.03,221.7 "/>
<polygon class="st3" points="565.11,164.33 438.17,293.44 557.72,436.11 599.89,436.11 479.39,314.61 572.3,221.7 "/>
</svg>
